<svg width="26" height="26" viewBox="0 0 26 26" fill="none" xmlns="http://www.w3.org/2000/svg">
<path d="M12.9999 8.83447C10.7062 8.83447 8.83428 10.7063 8.83428 13.0001C8.83428 15.2938 10.7062 17.1657 12.9999 17.1657C15.2937 17.1657 17.1655 15.2938 17.1655 13.0001C17.1655 10.7063 15.2937 8.83447 12.9999 8.83447ZM25.4937 13.0001C25.4937 11.2751 25.5093 9.56572 25.4124 7.84385C25.3155 5.84385 24.8593 4.06885 23.3968 2.60635C21.9312 1.14072 20.1593 0.687599 18.1593 0.590724C16.4343 0.493849 14.7249 0.509474 13.003 0.509474C11.278 0.509474 9.56865 0.493849 7.84678 0.590724C5.84678 0.687599 4.07178 1.14385 2.60928 2.60635C1.14365 4.07197 0.690529 5.84385 0.593654 7.84385C0.496779 9.56885 0.512404 11.2782 0.512404 13.0001C0.512404 14.722 0.496779 16.4345 0.593654 18.1563C0.690529 20.1563 1.14678 21.9313 2.60928 23.3938C4.0749 24.8595 5.84678 25.3126 7.84678 25.4095C9.57178 25.5063 11.2812 25.4907 13.003 25.4907C14.728 25.4907 16.4374 25.5063 18.1593 25.4095C20.1593 25.3126 21.9343 24.8563 23.3968 23.3938C24.8624 21.9282 25.3155 20.1563 25.4124 18.1563C25.5124 16.4345 25.4937 14.7251 25.4937 13.0001V13.0001ZM12.9999 19.4095C9.45303 19.4095 6.59053 16.547 6.59053 13.0001C6.59053 9.45322 9.45303 6.59072 12.9999 6.59072C16.5468 6.59072 19.4093 9.45322 19.4093 13.0001C19.4093 16.547 16.5468 19.4095 12.9999 19.4095ZM19.6718 7.8251C18.8437 7.8251 18.1749 7.15635 18.1749 6.32822C18.1749 5.5001 18.8437 4.83135 19.6718 4.83135C20.4999 4.83135 21.1687 5.5001 21.1687 6.32822C21.1689 6.52487 21.1304 6.71962 21.0552 6.90135C20.9801 7.08307 20.8698 7.24818 20.7308 7.38723C20.5917 7.52627 20.4266 7.63652 20.2449 7.71166C20.0632 7.7868 19.8684 7.82535 19.6718 7.8251V7.8251Z" fill="white"/>
</svg>
